<svg id="图层_1" data-name="图层 1" xmlns="http://www.w3.org/2000/svg" viewBox="0 0 852.51 289.12"><defs><style>.cls-1{fill:#0fffff;fill-opacity:0;}.cls-1,.cls-2{fill-rule:evenodd;}.cls-2{fill:#fff;}</style></defs><g id="Untitled"><path class="cls-1" d="M382,204.62H1234.5V493.75H382V204.62Z" transform="translate(-381.98 -204.62)"/><path class="cls-2" d="M474.67,418.71h-60V282.9l60-.19h.62a80.15,80.15,0,0,1,29.38,5h0a62,62,0,0,1,22.6,14.13,64,64,0,0,1,14,21.57,72.63,72.63,0,0,1,5,27.18h0q0,19.61-9,35.13A62.91,62.91,0,0,1,511.89,410q-16.38,8.76-37.22,8.76ZM447.42,313.16v75.17h27.25q17.15,0,27.82-10.38t10.64-27.37h0q0-18-10.35-27.71t-28.11-9.71H447.42Zm115.16,37.61h0a67.11,67.11,0,0,1,5.56-26.95,70.46,70.46,0,0,1,15.19-22.46,71.7,71.7,0,0,1,23.45-15.29,76.31,76.31,0,0,1,29.39-5.71h0a74.34,74.34,0,0,1,60.76,29.8h0l-28.25,14.33q-10.57-13.38-32.89-13.38h0q-17.71,0-29,11.14t-11.3,28.09h0a39,39,0,0,0,11.58,28.32q11.6,11.8,29.11,11.8h0q21.26,0,33.32-11.42h0V365.9h-41.3V340.67H698.4v50.41a21.56,21.56,0,0,1-2.94,3.91,75.66,75.66,0,0,1-7.93,7.47,91.32,91.32,0,0,1-12.34,8.66A75.73,75.73,0,0,1,658,418.17a78.48,78.48,0,0,1-21.56,2.95h0A78,78,0,0,1,606,415.27a68.73,68.73,0,0,1-23.45-15.62,72.42,72.42,0,0,1-14.67-22.47A67.43,67.43,0,0,1,562.58,350.77Zm193.26,67.94H723.13v-136h65.52q20.75,0,34.51,14.51t13.77,36.56h0a53.17,53.17,0,0,1-6.5,26.23,43.67,43.67,0,0,1-17.62,17.71h0l27.92,41H800l-20.36-33.8H755.84Zm0-105.55v41.42h28a19.08,19.08,0,0,0,14.29-6.14A20.35,20.35,0,0,0,804,333.78h0a20.22,20.22,0,0,0-5.84-14.52,18.79,18.79,0,0,0-14.1-6.1H755.85Zm95.41,37.61h0a69.72,69.72,0,0,1,5.46-27.28,71.4,71.4,0,0,1,14.86-22.42A70.09,70.09,0,0,1,893.89,286a67.91,67.91,0,0,1,27.25-5.62h0A67.77,67.77,0,0,1,948.25,286a69.87,69.87,0,0,1,22.36,15.09,72.25,72.25,0,0,1,15,22.51,68.09,68.09,0,0,1,5.6,27.19h0A68.78,68.78,0,0,1,985.61,378a70.4,70.4,0,0,1-15,22.47,71.46,71.46,0,0,1-22.41,15,67.6,67.6,0,0,1-27.11,5.62h0A68.13,68.13,0,0,1,886,411.65a69.85,69.85,0,0,1-34.71-60.88Zm29.87,0h0a39.93,39.93,0,0,0,40,39.89h0a39.84,39.84,0,0,0,39.74-39.89h0a39.93,39.93,0,0,0-39.74-39.84h0a38.68,38.68,0,0,0-28.29,11.66A38.29,38.29,0,0,0,881.13,350.78Zm151.1,67.93-45.05-136H1022l28.1,88.25L1081,282.71h35.75l27.53,87.77,31.47-87.77h35.13l-50.89,136h-33.51L1098,330.17l-31.9,88.54Z" transform="translate(-381.98 -204.62)"/></g></svg>