<svg width="640" height="360" xmlns="http://www.w3.org/2000/svg">
 <desc>Created with Fabric.js 3.6.3</desc>

 <g>
  <title>background</title>
  <rect fill="none" id="canvas_background" height="362" width="642" y="-1" x="-1"/>
 </g>
 <g>
  <title>Layer 1</title>
  <g fill-opacity="0" id="background-logo" transform="matrix(1.9692780337941629,0,0,1.9692780337941629,640.0153846153846,512.012312418764) ">
   <rect fill="#0fffff" id="svg_1" stroke=" none" height="520" width="650" y="-265.232799" x="-332.109191"/>
  </g>
  <g filter=" url(#SVGID_51306)" id="text-logo" transform="matrix(1.9692780337941629,0,0,1.9692780337941629,666.3660229948457,468.5061997104269) ">
   <filter transform="translate(0,-121.4999008178711) translate(0,2.2517056465148926) translate(0,-1.3834257125854492) translate(0,-11.043432235717773) translate(0,131.675048828125) translate(0,-121.49988555908203) translate(0,2.2517056465148926) translate(0,-1.3834412097930908) translate(0,-11.043432235717773) translate(0,131.520263671875) translate(-104.09906768798828,-174.6833038330078) translate(0.5078003406524658,0.5078003406524658) translate(0.5078003406524658,0.5078003406524658) translate(0.5078003406524658,0.5078003406524658) " width="140%" x="-20%" height="140%" y="-20%" id="SVGID_51306">
    <feGaussianBlur stdDeviation="0"/>
   </filter>
   <text x="-102.575667" y="-173.314697" fill="#ffffff" id="svg_2" stroke=" rgb(60,180,116)" font-weight="normal" font-style="normal" font-size="78" font-family="Alfphabet" xml:space="preserve">
    <tspan fill="#ffffff" id="svg_3" y="-149.319577" x="-181.083467">官儿</tspan>
   </text>
  </g>
  <g id="logo-logo" transform="matrix(1.1207444448187553,0,0,1.1207444448187553,343.7186343694775,512.012312418764) ">
   <g id="svg_4">
    <g id="svg_5" transform="matrix(1.3967356335750525,0,0,1.3967356335750525,0,0) ">
     <g id="svg_6">
      <g id="svg_7">
       <path fill="#ffffff" id="svg_8" stroke=" none" stroke-linecap="round" d="m-129.03685,-118.031448a20.92,20.92 0 0 1 -12.48,-4.4l-68.37,-43.6l-0.15,-0.08c-3.09,-2.31 -5,-6.84 -5,-11.81l0,-80.22c0,-5 1.92,-9.5 5,-11.81l0.29,-0.2l68.23,-43.48c7.94,-5.87 17,-5.87 25,0l68.33,43.6l0.14,0.11c3.14,2.34 5,6.76 5,11.81l0,80.22c0,5 -1.87,9.46 -5,11.81l-0.29,0.2l-68.21,43.45a21,21 0 0 1 -12.49,4.4z"/>
      </g>
     </g>
    </g>
   </g>
  </g>
  <g filter=" url(#SVGID_51307)" id="tagline-399f0979-b26e-4cb1-a516-cabb1a8c2807-logo" transform="matrix(1.9692780337941629,0,0,1.9692780337941629,343.7186343694775,525.064813276019) ">
   <filter transform="translate(0,-121.4999008178711) translate(0,2.2517056465148926) translate(0,-1.3834257125854492) translate(0,-11.043432235717773) translate(0,131.675048828125) translate(0,-121.49988555908203) translate(0,2.2517056465148926) translate(0,-1.3834412097930908) translate(0,-11.043432235717773) translate(0,131.520263671875) translate(-104.09906768798828,-174.6833038330078) translate(0.5078003406524658,0.5078003406524658) translate(0.5078003406524658,0.5078003406524658) translate(0.5078003406524658,0.5078003406524658) " width="140%" x="-20%" height="140%" y="-20%" id="SVGID_51307">
    <feGaussianBlur stdDeviation="0"/>
   </filter>
   <text x="-102.575667" y="-173.314697" fill="#3cb474" id="svg_9" stroke=" rgb(33,99,64)" font-weight="normal" font-style="normal" font-size="118" font-family="Alfphabet" xml:space="preserve">
    <tspan fill="#3cb474" id="svg_10" y="-136.753977" x="-162.083467">店</tspan>
   </text>
  </g>
  <g id="tagline-e5ddf0a8-e476-406b-b60e-8698f93f130f-logo-path" transform="matrix(1.9692780337941629,0,0,1.9692780337941629,669.9709172080753,619.4205646738685) ">
   <path fill="#ffde59" id="svg_11" stroke=" none" stroke-linecap="round" d="m-173.800667,-159.039697l-12.63,0l0,-28.53l12.63,-0.04q0.06,0 0.13,0l0,0q3.38,-0.02 6.19,1.05l0,0q2.85,1.06 4.76,2.97q1.9,1.91 2.95,4.53q1.05,2.63 1.05,5.71l0,0q0,4.12 -1.9,7.38q-1.9,3.26 -5.34,5.09q-3.45,1.84 -7.84,1.84l0,0zm-5.74,-22.17l0,15.79l5.74,0q3.61,0 5.86,-2.18q2.24,-2.19 2.24,-5.75l0,0q0,-3.78 -2.18,-5.82q-2.19,-2.04 -5.92,-2.04l0,0l-5.74,0zm24.26,7.9l0,0q0,-2.96 1.17,-5.66q1.17,-2.71 3.2,-4.72q2.03,-2.01 4.94,-3.21q2.91,-1.2 6.19,-1.2l0,0q4.02,0 7.31,1.67q3.28,1.67 5.49,4.59l0,0l-5.95,3.01q-2.23,-2.81 -6.93,-2.81l0,0q-3.73,0 -6.11,2.34q-2.38,2.34 -2.38,5.9l0,0q0,3.47 2.44,5.95q2.44,2.48 6.13,2.48l0,0q4.48,0 7.02,-2.4l0,0l0,-2.76l-8.7,0l0,-5.3l14.79,0l0,10.59q-0.1,0.22 -0.62,0.82q-0.51,0.59 -1.67,1.57q-1.16,0.97 -2.6,1.82q-1.45,0.85 -3.63,1.48q-2.19,0.62 -4.54,0.62l0,0q-3.45,0 -6.4,-1.23q-2.96,-1.23 -4.94,-3.28q-1.97,-2.05 -3.09,-4.72q-1.12,-2.66 -1.12,-5.55zm40.71,14.27l-6.89,0l0,-28.57l13.8,0q4.37,0 7.27,3.05q2.9,3.04 2.9,7.68l0,0q0,3.05 -1.37,5.51q-1.38,2.47 -3.71,3.72l0,0l5.88,8.61l-8.57,0l-4.29,-7.1l-5.02,0l0,7.1zm0,-22.17l0,8.7l5.9,0q1.77,0 3.01,-1.29q1.24,-1.28 1.24,-3.08l0,0q0,-1.77 -1.23,-3.05q-1.23,-1.28 -2.97,-1.28l0,0l-5.95,0zm20.1,7.9l0,0q0,-3 1.15,-5.73q1.16,-2.72 3.13,-4.71q1.97,-1.99 4.7,-3.17q2.73,-1.18 5.74,-1.18l0,0q2.97,0 5.71,1.18q2.74,1.18 4.71,3.17q1.97,1.99 3.15,4.73q1.18,2.73 1.18,5.71l0,0q0,2.99 -1.17,5.73q-1.17,2.74 -3.15,4.72q-1.98,1.97 -4.72,3.15q-2.74,1.18 -5.71,1.18l0,0q-4.02,0 -7.41,-1.99q-3.4,-1.99 -5.36,-5.38q-1.95,-3.39 -1.95,-7.41zm6.29,0l0,0q0,3.48 2.47,5.93q2.47,2.45 5.96,2.45l0,0q3.45,0 5.91,-2.45q2.46,-2.45 2.46,-5.93l0,0q0,-3.45 -2.46,-5.91q-2.46,-2.46 -5.91,-2.46l0,0q-3.49,0 -5.96,2.45q-2.47,2.45 -2.47,5.92zm31.83,14.27l-9.49,-28.57l7.34,0l5.92,18.54l6.5,-18.54l7.53,0l5.8,18.44l6.63,-18.44l7.4,0l-10.72,28.57l-7.06,0l-5.99,-18.6l-6.72,18.6l-7.14,0z"/>
  </g>
 </g>
</svg>