<svg id="图层_1" data-name="图层 1" xmlns="http://www.w3.org/2000/svg"  height="32" width="64" viewBox="0 0 550.12 276.75"><defs><style>.cls-1{fill:#0fffff;fill-opacity:0;}.cls-1,.cls-2,.cls-3,.cls-4{fill-rule:evenodd;}.cls-2{fill:#3cb474;}.cls-3{fill:#fff;}.cls-4{fill:#ffde59;}</style></defs><g id="Untitled"><path class="cls-1" d="M491.11,275.86h550.12V552.61H491.11V275.86Z" transform="translate(-491.11 -275.86)"/><path class="cls-2" d="M783.42,304.89q9.78,2.73,13.69,6.25,1.56,3.92-2.35,8.21h31.67q.39,0,2-2.34l2-2q7.42,5.86,8.21,8.6c0,.26-.39.39-1.18.39q-7.43-.39-16,9l-.79-.79q7.83-11.33,6.26-10.55H759.18q-.39,9.78-4.69,13.68c-2.34,1.57-4.17,2-5.47,1.17a4.13,4.13,0,0,1-1.17-5.08q9-7,9.77-15.64l1.17.4.39,3.12h32.06q-1.17-6.64-8.6-13.68Zm-15.24,26.19q6.26,3.14,7,3.91h33.23c.26,0,.79-.65,1.57-1.95l1.56-2a25.1,25.1,0,0,1,7.43,5.08l-1.17,1.18c-1.31,1.3-2,2.08-2,2.34l.39,18a24.17,24.17,0,0,1-6.25,1.95v-4.69H774v13.68h37.14c.26,0,1.17-.91,2.74-2.73l1.56-1.57q5.47,3.92,6.65,5.87L821,371.35q-2,1.56-2,1.95l.39,21.51a14.26,14.26,0,0,1-6.26,2.34v-6.64H774v6.25c-2.87,1.57-5.21,2.35-7,2.35v-4.69Q768.58,351.8,768.18,331.08Zm8.6,6.26q-3.53-.39-2.74,2v13.29h36V337.34ZM813.13,371H774v17.2h39.09Z" transform="translate(-491.11 -275.86)"/><path class="cls-2" d="M874.52,306.45l10.94,5.08a2.53,2.53,0,0,1-1.17,1.18q-2.35,1.17-2.35,5.08,0,6.25-.39,15.64,0,12.12-.39,20.33,1.17,32.06-36,44.18l-.39-1.18q18.76-9,24.63-18.76t5.48-31.28q0-18.77-.39-34.8Zm25.8.78,10.16,4.69c0,.53-.39.92-1.17,1.18-1.56.78-2.48,2.6-2.74,5.47q-1.17,60.6-1.17,62.16-1.56,7.44,5.08,7,13.29,0,14.86-.39c2.08,0,3.39-.39,3.91-1.17q1.56-1.18,3.91-21.51h1.17q0,9.78.39,13.3c.26,4.17,1.7,6.51,4.3,7q.78,0,.78.39-1.17,7.44-13.68,7.43-14.46,0-19.55-.39-9,.39-7.82-9.38Q898.75,379.17,900.32,307.23Z" transform="translate(-491.11 -275.86)"/><path class="cls-2" d="M635.6,525.7a25.65,25.65,0,0,1-14.75-4.93L540,472l-.18-.09c-3.65-2.58-5.91-7.65-5.91-13.22V368.82c0-5.6,2.27-10.64,5.91-13.22l.34-.23,80.65-48.68c9.39-6.57,20.09-6.57,29.55,0l80.77,48.82.16.12c3.71,2.62,5.91,7.57,5.91,13.22v89.82c0,5.6-2.21,10.6-5.91,13.23l-.34.22-80.63,48.65A25.65,25.65,0,0,1,635.6,525.7Z" transform="translate(-491.11 -275.86)"/><path class="cls-3" d="M635.43,372.6V423H600.56v60.83h16.26v-6.57h59.74v6.57h16.11V423H651.85V404.19H701V388.86H651.85V372.6Zm-18.61,89.29V438h59.74v23.92ZM641.06,338.2,624,341a106.15,106.15,0,0,1,6.88,11.73H575.7v47.54c-.32,30.65-4.85,54.58-13.3,71.78l12.51,11.1Q591.1,452,591.8,400.28v-31.9H704.55V352.74H647.79A158.33,158.33,0,0,0,641.06,338.2Z" transform="translate(-491.11 -275.86)"/><path class="cls-4" d="M779.89,482.45H760.14V437.83l19.75-.06h.21a26.49,26.49,0,0,1,9.68,1.64h0a20.34,20.34,0,0,1,7.44,4.64,21,21,0,0,1,4.61,7.09,23.76,23.76,0,0,1,1.65,8.93h0a22.51,22.51,0,0,1-3,11.54,20.76,20.76,0,0,1-8.36,8,25.6,25.6,0,0,1-12.26,2.88Zm-9-34.68v24.7h9a12.63,12.63,0,0,0,9.16-3.41,12,12,0,0,0,3.5-9h0q0-5.91-3.41-9.1t-9.25-3.19h-9Zm37.93,12.36h0a22.07,22.07,0,0,1,1.83-8.86,23.3,23.3,0,0,1,5-7.38,23.65,23.65,0,0,1,7.72-5,25.18,25.18,0,0,1,9.68-1.87h0a24.9,24.9,0,0,1,11.43,2.61,24.57,24.57,0,0,1,8.59,7.18h0l-9.31,4.7q-3.48-4.39-10.83-4.39h0a13.06,13.06,0,0,0-9.56,3.66,12.39,12.39,0,0,0-3.72,9.22h0a13.15,13.15,0,0,0,13.4,13.19h0q7,0,11-3.76h0V465.1h-13.6v-8.29h23.12v16.56a6.49,6.49,0,0,1-1,1.28,23.86,23.86,0,0,1-2.61,2.46A30,30,0,0,1,846,480a25,25,0,0,1-5.68,2.32,25.78,25.78,0,0,1-7.1,1h0a25.62,25.62,0,0,1-10-1.93,22.7,22.7,0,0,1-7.72-5.12,23.63,23.63,0,0,1-4.83-7.39A22.07,22.07,0,0,1,808.85,460.13Zm63.67,22.31H861.74V437.77h21.58a15,15,0,0,1,11.37,4.77,16.72,16.72,0,0,1,4.54,12h0a17.35,17.35,0,0,1-2.15,8.61,14.32,14.32,0,0,1-5.8,5.82h0l9.2,13.46H887.07l-6.7-11.1h-7.85Zm0-34.67v13.61h9.22a6.26,6.26,0,0,0,4.71-2,6.68,6.68,0,0,0,1.94-4.82h0a6.67,6.67,0,0,0-1.92-4.77,6.24,6.24,0,0,0-4.65-2h-9.3ZM904,460.13h0a22.88,22.88,0,0,1,1.8-9,23.44,23.44,0,0,1,4.89-7.36,23.07,23.07,0,0,1,7.35-5,22.41,22.41,0,0,1,9-1.84h0a22.38,22.38,0,0,1,8.93,1.84,23,23,0,0,1,7.36,5,23.55,23.55,0,0,1,4.93,7.4,22.24,22.24,0,0,1,1.84,8.93h0a22.62,22.62,0,0,1-1.83,9,23.38,23.38,0,0,1-4.92,7.38,23.72,23.72,0,0,1-7.38,4.92,22.39,22.39,0,0,1-8.93,1.85h0a22.52,22.52,0,0,1-11.59-3.11,23,23,0,0,1-11.43-20Zm9.84,0h0a12.54,12.54,0,0,0,3.86,9.27,12.73,12.73,0,0,0,9.32,3.84h0a13.13,13.13,0,0,0,13.09-13.11h0A13.15,13.15,0,0,0,927,447h0a12.76,12.76,0,0,0-9.32,3.83A12.55,12.55,0,0,0,913.79,460.13Zm49.77,22.31-14.84-44.67H960.2l9.26,29,10.16-29H991.4l9.07,28.83,10.36-28.83h11.58l-16.77,44.67h-11l-9.36-29.08-10.51,29.08Z" transform="translate(-491.11 -275.86)"/></g></svg>